<svg id="Layer_1" data-name="Layer 1" xmlns="http://www.w3.org/2000/svg" viewBox="0 0 37.83 37.83"><defs><style>.cls-1{fill:#957b3e;}.cls-2{fill:#fff;}</style></defs><circle class="cls-1" cx="18.92" cy="18.92" r="18.92"/><path class="cls-2" d="M27.79,9.73a3,3,0,0,0-4.25,0L22.47,10.8,11.15,22.11l0,0h0l0,.05s0,0,0,0l0,0a0,0,0,0,0,0,0l0,0a0,0,0,0,1,0,0L8.49,29.9a.58.58,0,0,0,.15.61.59.59,0,0,0,.42.17.58.58,0,0,0,.19,0l7.55-2.52h0l.06,0h0l.06,0,0,0h0s0,0,0,0L29.42,15.6a3,3,0,0,0,0-4.25Zm-11.18,17-4.18-4.18L22.9,12.07l4.18,4.18Zm-4.77-3.07,3.65,3.66L10,29.13Zm16.73-8.89-.64.64-4.18-4.18.64-.64a1.79,1.79,0,0,1,2.55,0l1.63,1.63A1.81,1.81,0,0,1,28.57,14.76Z" transform="translate(-0.63 -0.85)"/></svg>