<?xml version="1.0" standalone="no"?>
<!DOCTYPE svg PUBLIC "-//W3C//DTD SVG 20010904//EN"
 "http://www.w3.org/TR/2001/REC-SVG-20010904/DTD/svg10.dtd">
<svg version="1.0" xmlns="http://www.w3.org/2000/svg"
 width="1035.000000pt" height="1280.000000pt" viewBox="0 0 1035.000000 1280.000000"
 preserveAspectRatio="xMidYMid meet">
<metadata>
Created by potrace 1.16, written by Peter Selinger 2001-2019
</metadata>
<g transform="translate(0.000000,1280.000000) scale(0.100000,-0.100000)"
fill="#000000" stroke="none">
<path fill="#0180ad" d="M2810 12794 c-465 -57 -777 -149 -1143 -336 -803 -411 -1394 -1179
-1590 -2068 -122 -550 -92 -1118 86 -1653 139 -415 366 -799 660 -1116 39 -42
81 -100 96 -131 24 -54 25 -60 23 -250 -2 -107 -7 -314 -12 -460 -6 -146 -14
-494 -20 -775 -6 -280 -21 -928 -35 -1440 -24 -897 -33 -1290 -55 -2360 -11
-496 -26 -1133 -37 -1501 -6 -219 5 -297 59 -406 87 -175 300 -292 501 -275
220 19 397 163 462 377 18 60 29 359 60 1590 8 344 20 796 25 1005 5 209 17
691 25 1070 8 380 19 895 25 1145 5 250 14 687 20 970 20 1060 21 1069 62
1344 19 129 20 158 10 227 -21 148 -94 278 -208 373 -419 351 -650 746 -745
1276 -21 115 -18 508 4 630 59 311 154 554 312 794 146 222 349 426 571 574
493 330 1089 424 1674 267 363 -98 727 -328 978 -618 242 -280 390 -581 467
-948 33 -153 45 -466 26 -626 -57 -468 -269 -896 -602 -1218 -375 -363 -817
-553 -1344 -580 -147 -8 -202 -19 -281 -57 -123 -59 -224 -177 -264 -306 -25
-81 -27 -225 -4 -303 42 -141 138 -255 268 -319 133 -65 208 -70 556 -34 986
102 1887 712 2361 1599 236 442 351 874 366 1380 28 919 -352 1791 -1048 2406
-438 387 -982 637 -1599 735 -101 15 -620 29 -710 18z"/>
<path fill="#0180ad" d="M9700 8525 c-30 -8 -122 -46 -205 -86 -82 -39 -225 -107 -317 -150
-326 -153 -504 -237 -623 -294 -66 -31 -181 -85 -255 -120 -74 -34 -202 -95
-284 -134 -82 -39 -150 -71 -151 -71 -1 0 -69 -32 -151 -71 -82 -40 -224 -107
-316 -150 -273 -128 -496 -233 -613 -289 -60 -29 -185 -88 -277 -131 -93 -44
-243 -114 -335 -158 -93 -43 -217 -102 -278 -131 -60 -29 -185 -88 -277 -131
-490 -230 -526 -248 -813 -384 -66 -31 -151 -68 -190 -82 -226 -82 -365 -272
-365 -498 0 -141 49 -268 138 -361 101 -106 206 -154 353 -162 128 -6 209 13
319 77 19 12 136 67 260 124 193 89 815 380 1090 509 47 22 156 73 243 114
l157 73 0 -2702 c1 -1686 4 -2729 10 -2774 6 -40 14 -104 19 -142 25 -190 204
-362 410 -394 201 -31 411 63 526 236 81 121 78 102 86 662 4 275 8 1614 7
2975 l0 2475 21 55 c12 30 37 75 57 100 38 48 121 115 157 126 12 3 101 41
197 84 245 109 590 269 1070 498 58 27 157 74 220 104 543 258 563 269 630
345 55 63 84 116 110 201 19 63 22 90 18 180 -6 121 -24 178 -88 271 -117 174
-347 258 -560 206z"/>
</g>
</svg>
